<svg width="46" height="46" xmlns="http://www.w3.org/2000/svg" xmlns:xlink="http://www.w3.org/1999/xlink"><defs><linearGradient x1="18.72%" y1="88.116%" x2="77.575%" y2="9.81%" id="a"><stop stop-color="#59DFF5" offset="0%"/><stop stop-color="#2DBCE7" offset="100%"/></linearGradient><path d="M9.493 22.056c1-1.657 1.576-3.6 1.576-5.677 0-5.913-4.666-10.737-10.518-10.99A11.029 11.029 0 0 1 10.034 0C16.13 0 21.07 4.94 21.07 11.034c0 6.095-4.94 11.035-11.035 11.035-.181 0-.362-.004-.541-.013z" id="b"/><circle id="d" cx="11" cy="11.862" r="11"/></defs><g fill="none" fill-rule="evenodd"><circle fill="url(#a)" fill-rule="nonzero" cx="23" cy="23" r="23"/><g transform="translate(17.931 9.62)"><mask id="c" fill="#fff"><use xlink:href="#b"/></mask><path d="M10.034 21.569c5.819 0 10.535-4.716 10.535-10.535C20.569 5.216 15.853.5 10.034.5 4.216.5-.5 5.216-.5 11.034c0 5.44 4.141 9.972 9.517 10.487.337.032.676.048 1.017.048z" stroke="#FFF" mask="url(#c)"/><circle stroke="#FFF" mask="url(#c)" cx="10.034" cy="8.276" r="3.362"/><path d="M3.914 21.936h12.241v-4.797c0-1.514-1.077-2.827-2.646-3.375-.177-.062-.41.012-.662.23-.903.65-1.816.997-2.813.997-1.026 0-2-.347-2.785-.973-.3-.239-.49-.295-.734-.241a3.474 3.474 0 0 0-2.601 3.362v4.797z" stroke="#FFF" mask="url(#c)"/></g><g transform="translate(7 14.138)"><mask id="e" fill="#fff"><use xlink:href="#d"/></mask><circle stroke="#FFF" cx="11" cy="11.862" r="10.5"/><circle stroke="#FFF" mask="url(#e)" cx="11.034" cy="9.276" r="3.362"/><path d="M4.914 22.936h12.241v-4.797c0-1.514-1.077-2.827-2.646-3.375-.177-.062-.41.012-.662.23-.903.65-1.816.997-2.813.997-1.026 0-2-.347-2.785-.973-.3-.239-.49-.295-.734-.241a3.474 3.474 0 0 0-2.601 3.362v4.797z" stroke="#FFF" mask="url(#e)"/></g></g></svg>
